<svg width="30" height="27" viewBox="0 0 30 27" fill="none" xmlns="http://www.w3.org/2000/svg">
<path d="M15 25C13.6285 25 12.3351 24.7396 11.1198 24.2188C9.90451 23.6979 8.84115 22.9818 7.92969 22.0703C7.01823 21.1589 6.30208 20.0955 5.78125 18.8802C5.26042 17.6649 5 16.3715 5 15C5 13.6111 5.26042 12.3134 5.78125 11.1068C6.30208 9.90017 7.01823 8.84115 7.92969 7.92969C8.84115 7.01823 9.90451 6.30208 11.1198 5.78125C12.3351 5.26042 13.6285 5 15 5C16.3889 5 17.6866 5.26042 18.8932 5.78125C20.0998 6.30208 21.1589 7.01823 22.0703 7.92969C22.9818 8.84115 23.6979 9.90017 24.2188 11.1068C24.7396 12.3134 25 13.6111 25 15C25 16.3715 24.7396 17.6649 24.2188 18.8802C23.6979 20.0955 22.9818 21.1589 22.0703 22.0703C21.1589 22.9818 20.0998 23.6979 18.8932 24.2188C17.6866 24.7396 16.3889 25 15 25ZM15 23.0469C15.2951 22.7517 15.5903 22.2005 15.8854 21.3932C16.1806 20.5859 16.4062 19.7049 16.5625 18.75H13.4375C13.5938 19.7049 13.8194 20.5859 14.1146 21.3932C14.4097 22.2005 14.7049 22.7517 15 23.0469ZM12.6302 22.7865C12.3872 22.2656 12.1745 21.6667 11.9922 20.9896C11.8099 20.3125 11.658 19.566 11.5365 18.75H7.8125C8.31597 19.7396 8.98438 20.5859 9.81771 21.2891C10.651 21.9922 11.5885 22.4913 12.6302 22.7865ZM17.3698 22.7865C18.4115 22.4913 19.349 21.9922 20.1823 21.2891C21.0156 20.5859 21.684 19.7396 22.1875 18.75H18.4635C18.342 19.566 18.1901 20.3125 18.0078 20.9896C17.8255 21.6667 17.6128 22.2656 17.3698 22.7865ZM7.10938 16.875H11.3021C11.2674 16.5451 11.2457 16.2196 11.237 15.8984C11.2283 15.5773 11.224 15.2604 11.224 14.9479C11.224 14.6354 11.2283 14.3273 11.237 14.0234C11.2457 13.7196 11.2674 13.4201 11.3021 13.125H7.10938C7.02257 13.4549 6.96181 13.7717 6.92708 14.0755C6.89236 14.3793 6.875 14.6875 6.875 15C6.875 15.3125 6.89236 15.6207 6.92708 15.9245C6.96181 16.2283 7.02257 16.5451 7.10938 16.875ZM13.2031 16.875H16.7969C16.8316 16.5278 16.8533 16.2023 16.862 15.8984C16.8707 15.5946 16.875 15.2951 16.875 15C16.875 14.7049 16.8707 14.401 16.862 14.0885C16.8533 13.776 16.8316 13.4549 16.7969 13.125H13.2031C13.1684 13.4549 13.1467 13.776 13.138 14.0885C13.1293 14.401 13.125 14.7049 13.125 15C13.125 15.2951 13.1293 15.599 13.138 15.9115C13.1467 16.224 13.1684 16.5451 13.2031 16.875ZM18.6979 16.875H22.8906C22.9774 16.5451 23.0382 16.2283 23.0729 15.9245C23.1076 15.6207 23.125 15.3125 23.125 15C23.125 14.6875 23.1076 14.375 23.0729 14.0625C23.0382 13.75 22.9774 13.4375 22.8906 13.125H18.6979C18.7326 13.4549 18.7543 13.7804 18.763 14.1016C18.7717 14.4227 18.776 14.7396 18.776 15.0521C18.776 15.3646 18.7717 15.6727 18.763 15.9766C18.7543 16.2804 18.7326 16.5799 18.6979 16.875ZM18.4635 11.25H22.1875C21.684 10.2604 21.0156 9.41406 20.1823 8.71094C19.349 8.00781 18.4115 7.50868 17.3698 7.21354C17.6128 7.73438 17.8255 8.33333 18.0078 9.01042C18.1901 9.6875 18.342 10.434 18.4635 11.25ZM13.4375 11.25H16.5625C16.4062 10.2951 16.1806 9.41406 15.8854 8.60677C15.5903 7.79948 15.2951 7.24826 15 6.95312C14.7049 7.24826 14.4097 7.79948 14.1146 8.60677C13.8194 9.41406 13.5938 10.2951 13.4375 11.25ZM7.8125 11.25H11.5365C11.658 10.434 11.8099 9.6875 11.9922 9.01042C12.1745 8.33333 12.3872 7.73438 12.6302 7.21354C11.5885 7.50868 10.651 8.00781 9.81771 8.71094C8.98438 9.41406 8.31597 10.2604 7.8125 11.25Z" fill="#7C3AED"/>
</svg>
