<svg width="23" height="22" viewBox="0 0 23 22" fill="none" xmlns="http://www.w3.org/2000/svg">
<g clip-path="url(#clip0_9_37)">
<path d="M17.5423 0H4.70894C3.49381 0.00145554 2.32887 0.484808 1.46965 1.34403C0.610419 2.20326 0.127066 3.3682 0.12561 4.58333L0.12561 17.4167C0.127066 18.6318 0.610419 19.7967 1.46965 20.656C2.32887 21.5152 3.49381 21.9985 4.70894 22H17.5423C18.7574 21.9985 19.9223 21.5152 20.7816 20.656C21.6408 19.7967 22.1242 18.6318 22.1256 17.4167V4.58333C22.1242 3.3682 21.6408 2.20326 20.7816 1.34403C19.9223 0.484808 18.7574 0.00145554 17.5423 0ZM6.54228 20.1667V19.25C6.54228 18.0344 7.02516 16.8686 7.8847 16.0091C8.74425 15.1496 9.91004 14.6667 11.1256 14.6667C12.3412 14.6667 13.507 15.1496 14.3665 16.0091C15.2261 16.8686 15.7089 18.0344 15.7089 19.25V20.1667H6.54228ZM20.2923 17.4167C20.2923 18.146 20.0025 18.8455 19.4868 19.3612C18.9711 19.8769 18.2716 20.1667 17.5423 20.1667V19.25C17.5423 17.5482 16.8662 15.9161 15.6629 14.7127C14.4595 13.5094 12.8274 12.8333 11.1256 12.8333C9.42381 12.8333 7.7917 13.5094 6.58834 14.7127C5.38498 15.9161 4.70894 17.5482 4.70894 19.25V20.1667C3.9796 20.1667 3.28013 19.8769 2.7644 19.3612C2.24868 18.8455 1.95894 18.146 1.95894 17.4167V4.58333C1.95894 3.85399 2.24868 3.15451 2.7644 2.63879C3.28013 2.12306 3.9796 1.83333 4.70894 1.83333H17.5423C18.2716 1.83333 18.9711 2.12306 19.4868 2.63879C20.0025 3.15451 20.2923 3.85399 20.2923 4.58333V17.4167Z" fill="white"/>
<path d="M11.1256 3.66666C10.4004 3.66666 9.69148 3.8817 9.0885 4.2846C8.48552 4.6875 8.01555 5.26015 7.73803 5.93015C7.46051 6.60015 7.3879 7.33739 7.52938 8.04865C7.67086 8.75992 8.02007 9.41326 8.53287 9.92605C9.04566 10.4388 9.699 10.7881 10.4103 10.9295C11.1215 11.071 11.8588 10.9984 12.5288 10.7209C13.1988 10.4434 13.7714 9.97339 14.1743 9.37041C14.5772 8.76743 14.7923 8.05852 14.7923 7.33332C14.7923 6.36086 14.406 5.42823 13.7183 4.7406C13.0307 4.05296 12.0981 3.66666 11.1256 3.66666ZM11.1256 9.16666C10.763 9.16666 10.4085 9.05913 10.107 8.85768C9.80556 8.65623 9.57057 8.36991 9.43181 8.03491C9.29305 7.69991 9.25675 7.33129 9.32749 6.97566C9.39823 6.62003 9.57283 6.29336 9.82923 6.03696C10.0856 5.78056 10.4123 5.60596 10.7679 5.53522C11.1236 5.46448 11.4922 5.50078 11.8272 5.63954C12.1622 5.7783 12.4485 6.01329 12.65 6.31478C12.8514 6.61627 12.9589 6.97072 12.9589 7.33332C12.9589 7.81955 12.7658 8.28587 12.422 8.62969C12.0781 8.9735 11.6118 9.16666 11.1256 9.16666Z" fill="white"/>
</g>
<defs>
<clipPath id="clip0_9_37">
<rect width="22" height="22" fill="white" transform="translate(0.12561)"/>
</clipPath>
</defs>
</svg>
